<svg width="50" height="50" viewBox="0 0 106 106" fill="none" xmlns="http://www.w3.org/2000/svg">
<rect x="1.5" y="1.5" width="103" height="103" stroke="url(#paint0_linear_2586_214)" stroke-width="3"/>
<path d="M34.25 74.1666V52.4166C34.25 51.1277 34.7312 50 35.6938 49.0333C36.6562 48.0666 37.7792 47.5833 39.0624 47.5833C40.3458 47.5833 41.4688 48.0666 42.4312 49.0333C43.3937 50 43.875 51.1277 43.875 52.4166V79L63.125 74.1666V52.4166C63.125 51.1277 63.6062 50 64.5688 49.0333C65.5312 48.0666 66.6542 47.5833 67.9374 47.5833C69.2208 47.5833 70.3438 48.0666 71.3062 49.0333C72.2687 50 72.75 51.1277 72.75 52.4166V79L92 74.1666V52.4166C92 46.2945 89.5937 41.1388 84.7812 36.95C80.1291 32.7611 74.5145 30.6667 67.9374 30.6667C62.4833 30.6667 57.6708 32.1167 53.4999 35.0167C49.3292 32.1167 44.5167 30.6667 39.0624 30.6667C34.25 30.6667 29.5979 30.1028 25.1062 28.975C20.775 27.8472 17.4062 25.1889 15 21V79L34.25 74.1666Z" fill="url(#paint1_linear_2586_214)"/>
<defs>
<linearGradient id="paint0_linear_2586_214" x1="29.5974" y1="54.7569" x2="41.7613" y2="91.0317" gradientUnits="userSpaceOnUse">
<stop stop-color="#31C48D"/>
<stop offset="1" stop-color="#1C64F2"/>
</linearGradient>
<linearGradient id="paint1_linear_2586_214" x1="39.2505" y1="35.0846" x2="77.2376" y2="83.0696" gradientUnits="userSpaceOnUse">
<stop stop-color="#31C48D"/>
<stop offset="1" stop-color="#1C64F2"/>
</linearGradient>
</defs>
</svg>
